<svg xmlns="http://www.w3.org/2000/svg" xml:space="preserve" version="1.1" style="shape-rendering:geometricPrecision; text-rendering:geometricPrecision; image-rendering:optimizeQuality; fill-rule:evenodd; clip-rule:evenodd" viewBox="0 0 400 400" xmlns:xlink="http://www.w3.org/1999/xlink" id="svg-heart">
 <defs>
  <style type="text/css">
   <![CDATA[
    .fil0 {fill: black}
   ]]>
  </style>
 </defs>
 <g>
  <metadata id="CorelCorpID_0Corel-Layer"/>
  <path class="fil0" d="M285.7 19.11c-34.95,0.06 -67.7,17.11 -87.79,45.71 -20.09,-28.6 -52.83,-45.65 -87.79,-45.71 -57.16,0 -107.3,53.19 -107.3,113.81 0,59.08 33.36,119.92 96.48,175.97 29.24,25.91 61.32,48.44 95.63,67.16 1.87,0.97 4.09,0.97 5.97,0 34.29,-18.72 66.36,-41.25 95.59,-67.16 63.15,-56.05 96.51,-116.89 96.51,-175.97 0,-60.62 -50.14,-113.81 -107.3,-113.81l0 0zm-87.79 343.77c-23.88,-13.18 -182.08,-105.26 -182.08,-229.96 0,-53.7 44.06,-100.8 94.29,-100.8 34.03,0.06 65.41,18.42 82.13,48.07 1.25,1.91 3.38,3.06 5.66,3.06 2.28,0 4.42,-1.15 5.67,-3.06 16.72,-29.65 48.09,-48.01 82.12,-48.07 50.24,0 94.29,47.1 94.29,100.8 0,124.7 -158.19,216.78 -182.08,229.96zm0 0z"/>
 </g>
</svg>
