<?xml version="1.0" encoding="UTF-8"?>
<!DOCTYPE svg PUBLIC "-//W3C//DTD SVG 1.1//EN" "http://www.w3.org/Graphics/SVG/1.1/DTD/svg11.dtd">
<!-- Creator: CorelDRAW 2018 (64-Bit) -->
<svg xmlns="http://www.w3.org/2000/svg" xml:space="preserve" width="400px" height="400px" fill="#fff" version="1.1" style="shape-rendering:geometricPrecision; text-rendering:geometricPrecision; image-rendering:optimizeQuality; fill-rule:evenodd; clip-rule:evenodd"
viewBox="0 0 400 400"
 xmlns:xlink="http://www.w3.org/1999/xlink">
 <defs>
  <style type="text/css">
   <![CDATA[
    .fil0 {fill: #EB6254}
   ]]>
  </style>
 </defs>
 <g id="Слой_x0020_1">
  <metadata id="CorelCorpID_0Corel-Layer"/>
  <path class="fil0" d="M286.26 19.85c-34.77,0.05 -67.35,17.01 -87.33,45.47 -19.99,-28.46 -52.57,-45.42 -87.34,-45.47 -56.86,0 -106.74,52.91 -106.74,113.21 0,58.78 33.19,119.31 95.98,175.06 29.09,25.78 61,48.19 95.13,66.81 1.86,0.96 4.07,0.96 5.93,0 34.12,-18.62 66.02,-41.03 95.1,-66.81 62.82,-55.75 96.01,-116.28 96.01,-175.06 0,-60.3 -49.88,-113.21 -106.74,-113.21l0 0zm-249.15 71.25c10,-0.06 -1.21,17.01 -1.16,36.44 0.05,16.02 3.27,35.74 10.64,52.64 7,16.03 14.45,24.84 20.21,34.79 5.18,8.96 11.18,19.24 5.03,21.61 -5.28,3.34 -21.65,-13.28 -34.7,-37.35 -20.2,-37.24 -22.67,-96.53 -0.02,-108.13z"/>
 </g>
</svg>
